<svg width="41" height="40" viewBox="0 0 41 40" fill="none" xmlns="http://www.w3.org/2000/svg">
<g id="&#240;&#159;&#166;&#134; icon &#34;person outline&#34;">
<g id="Group">
<path id="Vector" d="M20.7455 18.3247C22.0635 18.3247 23.3518 17.9339 24.4476 17.2017C25.5434 16.4695 26.3975 15.4288 26.9018 14.2112C27.4062 12.9936 27.5381 11.6538 27.281 10.3612C27.0239 9.06861 26.3893 7.88129 25.4573 6.94938C24.5254 6.01747 23.3381 5.38283 22.0455 5.12572C20.7529 4.86861 19.4131 5.00057 18.1955 5.50491C16.9779 6.00926 15.9372 6.86334 15.205 7.95914C14.4728 9.05495 14.082 10.3433 14.082 11.6612C14.082 13.4285 14.7841 15.1234 16.0337 16.373C17.2834 17.6226 18.9783 18.3247 20.7455 18.3247ZM20.7455 8.32944C21.4045 8.32944 22.0487 8.52484 22.5966 8.89094C23.1445 9.25704 23.5715 9.77738 23.8237 10.3862C24.0758 10.995 24.1418 11.6649 24.0133 12.3112C23.8847 12.9575 23.5674 13.5511 23.1014 14.0171C22.6355 14.483 22.0418 14.8004 21.3955 14.9289C20.7492 15.0575 20.0793 14.9915 19.4705 14.7393C18.8617 14.4872 18.3414 14.0601 17.9753 13.5122C17.6092 12.9643 17.4138 12.3201 17.4138 11.6612C17.4138 10.7776 17.7648 9.93011 18.3896 9.30528C19.0145 8.68046 19.8619 8.32944 20.7455 8.32944Z" fill="#C4C4C4"/>
<path id="Vector_2" d="M20.7451 21.6565C17.6524 21.6565 14.6863 22.8851 12.4995 25.072C10.3126 27.2588 9.08398 30.2249 9.08398 33.3176C9.08398 33.7594 9.2595 34.1832 9.57191 34.4956C9.88432 34.808 10.308 34.9835 10.7499 34.9835C11.1917 34.9835 11.6154 34.808 11.9278 34.4956C12.2402 34.1832 12.4157 33.7594 12.4157 33.3176C12.4157 31.1085 13.2933 28.9899 14.8554 27.4279C16.4174 25.8658 18.536 24.9882 20.7451 24.9882C22.9542 24.9882 25.0728 25.8658 26.6349 27.4279C28.1969 28.9899 29.0745 31.1085 29.0745 33.3176C29.0745 33.7594 29.25 34.1832 29.5624 34.4956C29.8748 34.808 30.2986 34.9835 30.7404 34.9835C31.1822 34.9835 31.6059 34.808 31.9183 34.4956C32.2307 34.1832 32.4063 33.7594 32.4063 33.3176C32.4063 30.2249 31.1777 27.2588 28.9908 25.072C26.8039 22.8851 23.8378 21.6565 20.7451 21.6565Z" fill="#C4C4C4"/>
</g>
</g>
</svg>
