<svg width="40" height="40" viewBox="0 0 40 40" fill="none" xmlns="http://www.w3.org/2000/svg">
<g id="&#240;&#159;&#166;&#134; icon &#34;person&#34;">
<g id="Group">
<path id="Vector" d="M19.9887 18.3247C21.3066 18.3247 22.5949 17.9339 23.6907 17.2017C24.7866 16.4695 25.6406 15.4288 26.145 14.2112C26.6493 12.9936 26.7813 11.6538 26.5242 10.3612C26.2671 9.06861 25.6324 7.88129 24.7005 6.94938C23.7686 6.01747 22.5813 5.38283 21.2887 5.12572C19.9961 4.86861 18.6563 5.00057 17.4387 5.50491C16.2211 6.00926 15.1804 6.86334 14.4482 7.95914C13.716 9.05495 13.3252 10.3433 13.3252 11.6612C13.3252 13.4285 14.0272 15.1234 15.2769 16.373C16.5265 17.6226 18.2214 18.3247 19.9887 18.3247Z" fill="#EA6D27"/>
<path id="Vector_2" d="M29.9835 34.9835C30.4254 34.9835 30.8491 34.808 31.1615 34.4956C31.4739 34.1832 31.6494 33.7594 31.6494 33.3176C31.6494 30.2249 30.4208 27.2588 28.2339 25.072C26.0471 22.8851 23.081 21.6565 19.9883 21.6565C16.8956 21.6565 13.9295 22.8851 11.7426 25.072C9.55573 27.2588 8.32715 30.2249 8.32715 33.3176C8.32715 33.7594 8.50266 34.1832 8.81507 34.4956C9.12749 34.808 9.55121 34.9835 9.99302 34.9835H29.9835Z" fill="#EA6D27"/>
</g>
</g>
</svg>
