<svg width="64" height="64" viewBox="0 0 64 64" fill="none" xmlns="http://www.w3.org/2000/svg">
<path d="M9.84263 16.7786C13.584 12.7226 19.2453 10.6666 26.6666 10.6666H29.3333V18.184L27.1893 18.6133C23.536 19.344 20.9946 20.7813 19.6346 22.8906C18.925 24.027 18.5226 25.3281 18.4666 26.6666H26.6666C27.3739 26.6666 28.0522 26.9476 28.5522 27.4477C29.0523 27.9478 29.3333 28.626 29.3333 29.3333V48C29.3333 50.9413 26.9413 53.3333 24 53.3333H7.99996C7.29272 53.3333 6.61444 53.0523 6.11434 52.5522C5.61425 52.0521 5.3333 51.3739 5.3333 50.6666V37.3333L5.3413 29.5493C5.3173 29.2533 4.81063 22.24 9.84263 16.7786ZM53.3333 53.3333H37.3333C36.6261 53.3333 35.9478 53.0523 35.4477 52.5522C34.9476 52.0521 34.6666 51.3739 34.6666 50.6666V37.3333L34.6746 29.5493C34.6506 29.2533 34.144 22.24 39.176 16.7786C42.9173 12.7226 48.5786 10.6666 56 10.6666H58.6666V18.184L56.5226 18.6133C52.8693 19.344 50.328 20.7813 48.968 22.8906C48.2583 24.027 47.8559 25.3281 47.8 26.6666H56C56.7072 26.6666 57.3855 26.9476 57.8856 27.4477C58.3857 27.9478 58.6666 28.626 58.6666 29.3333V48C58.6666 50.9413 56.2746 53.3333 53.3333 53.3333Z" fill="#EA6D27"/>
</svg>
