<svg width="58" height="58" viewBox="0 0 58 58" fill="none" xmlns="http://www.w3.org/2000/svg">
<path d="M49.0801 42.7944C45.6895 46.4701 40.5589 48.3334 33.8334 48.3334L31.4167 48.3334L31.4167 41.5208L33.3597 41.1317C36.6705 40.4695 38.9736 39.167 40.2061 37.2554C40.8492 36.2256 41.2139 35.0464 41.2646 33.8334L33.8334 33.8334C33.1924 33.8334 32.5777 33.5788 32.1245 33.1255C31.6713 32.6723 31.4167 32.0576 31.4167 31.4167L31.4167 14.5C31.4167 11.8345 33.5844 9.66671 36.25 9.66671L50.75 9.66671C51.391 9.66671 52.0057 9.92132 52.4589 10.3745C52.9121 10.8277 53.1667 11.4424 53.1667 12.0834L53.1667 24.1667L53.1594 31.221C53.1812 31.4892 53.6404 37.845 49.0801 42.7944ZM9.66669 9.66671L24.1667 9.66671C24.8076 9.66671 25.4223 9.92132 25.8755 10.3745C26.3287 10.8277 26.5834 11.4424 26.5834 12.0834L26.5834 24.1667L26.5761 31.221C26.5979 31.4892 27.057 37.845 22.4968 42.7944C19.1062 46.4701 13.9756 48.3334 7.25002 48.3334L4.83335 48.3334L4.83335 41.5208L6.77635 41.1317C10.0872 40.4695 12.3903 39.167 13.6228 37.2554C14.2659 36.2256 14.6306 35.0464 14.6813 33.8334L7.25002 33.8334C6.60907 33.8334 5.99439 33.5788 5.54117 33.1255C5.08796 32.6723 4.83335 32.0576 4.83335 31.4167L4.83335 14.5C4.83335 11.8345 7.0011 9.66671 9.66669 9.66671Z" fill="#EA6D27"/>
</svg>
