<svg width="32" height="32" viewBox="0 0 32 32" fill="none" xmlns="http://www.w3.org/2000/svg">
<path d="M28.106 9.33314C27.8756 8.93396 27.5457 8.60131 27.1485 8.36764C26.7512 8.13396 26.3002 8.00723 25.8393 7.99981H8.77268L7.99935 4.98647C7.92122 4.69559 7.7469 4.43973 7.50479 4.26057C7.26267 4.08141 6.96703 3.98949 6.66602 3.99981H3.99935C3.64573 3.99981 3.30659 4.14028 3.05654 4.39033C2.80649 4.64038 2.66602 4.97952 2.66602 5.33314C2.66602 5.68676 2.80649 6.0259 3.05654 6.27595C3.30659 6.526 3.64573 6.66647 3.99935 6.66647H5.65268L9.33268 20.3465C9.41082 20.6374 9.58513 20.8932 9.82725 21.0724C10.0694 21.2515 10.365 21.3435 10.666 21.3331H22.666C22.9122 21.3324 23.1534 21.2635 23.3629 21.134C23.5724 21.0046 23.7419 20.8197 23.8527 20.5998L28.226 11.8531C28.4156 11.4558 28.5038 11.0178 28.4829 10.5781C28.4619 10.1383 28.3325 9.71064 28.106 9.33314ZM21.8393 18.6665H11.6793L9.50602 10.6665H25.8393L21.8393 18.6665Z" fill="#231F20"/>
<path d="M9.99902 27.9998C11.1036 27.9998 11.999 27.1043 11.999 25.9998C11.999 24.8952 11.1036 23.9998 9.99902 23.9998C8.89445 23.9998 7.99902 24.8952 7.99902 25.9998C7.99902 27.1043 8.89445 27.9998 9.99902 27.9998Z" fill="#231F20"/>
<path d="M23.333 27.9998C24.4376 27.9998 25.333 27.1043 25.333 25.9998C25.333 24.8952 24.4376 23.9998 23.333 23.9998C22.2284 23.9998 21.333 24.8952 21.333 25.9998C21.333 27.1043 22.2284 27.9998 23.333 27.9998Z" fill="#231F20"/>
</svg>
